<mxfile host="app.diagrams.net" agent="Mozilla/5.0 (Macintosh; Intel Mac OS X 10_15_7) AppleWebKit/605.1.15 (KHTML, like Gecko) Version/18.3.1 Safari/605.1.15" version="26.2.12">
  <diagram name="Page-1" id="CWYo1hhr9sqUx5a4yWTD">
    <mxGraphModel dx="978" dy="671" grid="1" gridSize="10" guides="1" tooltips="1" connect="1" arrows="1" fold="1" page="1" pageScale="1" pageWidth="1000" pageHeight="1000" math="0" shadow="0">
      <root>
        <mxCell id="0" />
        <mxCell id="1" parent="0" />
        <mxCell id="blF4XUEwuyT9fOhSTZ_r-1" value="&lt;b&gt;Holiday&lt;/b&gt;" style="text;html=1;align=center;verticalAlign=middle;whiteSpace=wrap;rounded=0;fontSize=15;" parent="1" vertex="1">
          <mxGeometry x="15" y="20" width="110" height="30" as="geometry" />
        </mxCell>
        <mxCell id="blF4XUEwuyT9fOhSTZ_r-3" style="rounded=0;orthogonalLoop=1;jettySize=auto;html=1;exitX=0.5;exitY=1;exitDx=0;exitDy=0;entryX=0.5;entryY=0;entryDx=0;entryDy=0;" parent="1" source="blF4XUEwuyT9fOhSTZ_r-5" target="blF4XUEwuyT9fOhSTZ_r-12" edge="1">
          <mxGeometry relative="1" as="geometry" />
        </mxCell>
        <mxCell id="blF4XUEwuyT9fOhSTZ_r-4" style="rounded=0;orthogonalLoop=1;jettySize=auto;html=1;exitX=0.5;exitY=1;exitDx=0;exitDy=0;" parent="1" source="blF4XUEwuyT9fOhSTZ_r-5" target="blF4XUEwuyT9fOhSTZ_r-15" edge="1">
          <mxGeometry relative="1" as="geometry" />
        </mxCell>
        <mxCell id="blF4XUEwuyT9fOhSTZ_r-5" value="All" style="rounded=1;whiteSpace=wrap;html=1;" parent="1" vertex="1">
          <mxGeometry x="520" y="80" width="120" height="60" as="geometry" />
        </mxCell>
        <mxCell id="blF4XUEwuyT9fOhSTZ_r-6" value="All" style="text;html=1;align=center;verticalAlign=middle;whiteSpace=wrap;rounded=0;fontSize=15;" parent="1" vertex="1">
          <mxGeometry x="40" y="95" width="60" height="30" as="geometry" />
        </mxCell>
        <mxCell id="blF4XUEwuyT9fOhSTZ_r-7" style="edgeStyle=orthogonalEdgeStyle;rounded=0;orthogonalLoop=1;jettySize=auto;html=1;exitX=0.5;exitY=0;exitDx=0;exitDy=0;entryX=0.5;entryY=1;entryDx=0;entryDy=0;" parent="1" source="blF4XUEwuyT9fOhSTZ_r-8" target="blF4XUEwuyT9fOhSTZ_r-10" edge="1">
          <mxGeometry relative="1" as="geometry" />
        </mxCell>
        <mxCell id="blF4XUEwuyT9fOhSTZ_r-8" value="holiday" style="text;html=1;align=center;verticalAlign=middle;whiteSpace=wrap;rounded=0;fontSize=15;" parent="1" vertex="1">
          <mxGeometry x="40" y="400" width="60" height="30" as="geometry" />
        </mxCell>
        <mxCell id="blF4XUEwuyT9fOhSTZ_r-10" value="day_of_week" style="text;html=1;align=center;verticalAlign=middle;whiteSpace=wrap;rounded=0;fontSize=15;" parent="1" vertex="1">
          <mxGeometry x="40" y="235" width="60" height="30" as="geometry" />
        </mxCell>
        <mxCell id="blF4XUEwuyT9fOhSTZ_r-52" style="rounded=0;orthogonalLoop=1;jettySize=auto;html=1;exitX=0.5;exitY=1;exitDx=0;exitDy=0;entryX=0.5;entryY=0;entryDx=0;entryDy=0;" parent="1" source="blF4XUEwuyT9fOhSTZ_r-12" target="blF4XUEwuyT9fOhSTZ_r-43" edge="1">
          <mxGeometry relative="1" as="geometry" />
        </mxCell>
        <mxCell id="blF4XUEwuyT9fOhSTZ_r-53" style="rounded=0;orthogonalLoop=1;jettySize=auto;html=1;exitX=0.5;exitY=1;exitDx=0;exitDy=0;entryX=0.5;entryY=0;entryDx=0;entryDy=0;" parent="1" source="blF4XUEwuyT9fOhSTZ_r-12" target="blF4XUEwuyT9fOhSTZ_r-44" edge="1">
          <mxGeometry relative="1" as="geometry" />
        </mxCell>
        <mxCell id="blF4XUEwuyT9fOhSTZ_r-54" style="rounded=0;orthogonalLoop=1;jettySize=auto;html=1;exitX=0.5;exitY=1;exitDx=0;exitDy=0;entryX=0.5;entryY=0;entryDx=0;entryDy=0;" parent="1" source="blF4XUEwuyT9fOhSTZ_r-12" target="blF4XUEwuyT9fOhSTZ_r-45" edge="1">
          <mxGeometry relative="1" as="geometry" />
        </mxCell>
        <mxCell id="blF4XUEwuyT9fOhSTZ_r-12" value="Weekend" style="rounded=1;whiteSpace=wrap;html=1;" parent="1" vertex="1">
          <mxGeometry x="380" y="220" width="120" height="60" as="geometry" />
        </mxCell>
        <mxCell id="blF4XUEwuyT9fOhSTZ_r-55" style="rounded=0;orthogonalLoop=1;jettySize=auto;html=1;exitX=0.5;exitY=1;exitDx=0;exitDy=0;entryX=0.5;entryY=0;entryDx=0;entryDy=0;" parent="1" source="blF4XUEwuyT9fOhSTZ_r-15" target="blF4XUEwuyT9fOhSTZ_r-49" edge="1">
          <mxGeometry relative="1" as="geometry" />
        </mxCell>
        <mxCell id="blF4XUEwuyT9fOhSTZ_r-56" style="rounded=0;orthogonalLoop=1;jettySize=auto;html=1;exitX=0.5;exitY=1;exitDx=0;exitDy=0;entryX=0.5;entryY=0;entryDx=0;entryDy=0;" parent="1" source="blF4XUEwuyT9fOhSTZ_r-15" target="blF4XUEwuyT9fOhSTZ_r-50" edge="1">
          <mxGeometry relative="1" as="geometry" />
        </mxCell>
        <mxCell id="blF4XUEwuyT9fOhSTZ_r-57" style="rounded=0;orthogonalLoop=1;jettySize=auto;html=1;exitX=0.5;exitY=1;exitDx=0;exitDy=0;entryX=0.5;entryY=0;entryDx=0;entryDy=0;" parent="1" source="blF4XUEwuyT9fOhSTZ_r-15" target="blF4XUEwuyT9fOhSTZ_r-51" edge="1">
          <mxGeometry relative="1" as="geometry" />
        </mxCell>
        <mxCell id="blF4XUEwuyT9fOhSTZ_r-15" value="Weekday" style="rounded=1;whiteSpace=wrap;html=1;" parent="1" vertex="1">
          <mxGeometry x="660" y="220" width="120" height="60" as="geometry" />
        </mxCell>
        <mxCell id="blF4XUEwuyT9fOhSTZ_r-43" value="Christmas" style="rounded=1;whiteSpace=wrap;html=1;" parent="1" vertex="1">
          <mxGeometry x="200" y="385" width="80" height="60" as="geometry" />
        </mxCell>
        <mxCell id="blF4XUEwuyT9fOhSTZ_r-44" value="None" style="rounded=1;whiteSpace=wrap;html=1;" parent="1" vertex="1">
          <mxGeometry x="320" y="385" width="80" height="60" as="geometry" />
        </mxCell>
        <mxCell id="blF4XUEwuyT9fOhSTZ_r-45" value="Easter" style="rounded=1;whiteSpace=wrap;html=1;" parent="1" vertex="1">
          <mxGeometry x="440" y="385" width="80" height="60" as="geometry" />
        </mxCell>
        <mxCell id="blF4XUEwuyT9fOhSTZ_r-49" value="Christmas" style="rounded=1;whiteSpace=wrap;html=1;" parent="1" vertex="1">
          <mxGeometry x="640" y="395" width="80" height="60" as="geometry" />
        </mxCell>
        <mxCell id="blF4XUEwuyT9fOhSTZ_r-50" value="None" style="rounded=1;whiteSpace=wrap;html=1;" parent="1" vertex="1">
          <mxGeometry x="760" y="395" width="80" height="60" as="geometry" />
        </mxCell>
        <mxCell id="blF4XUEwuyT9fOhSTZ_r-51" value="Easter" style="rounded=1;whiteSpace=wrap;html=1;" parent="1" vertex="1">
          <mxGeometry x="880" y="395" width="80" height="60" as="geometry" />
        </mxCell>
      </root>
    </mxGraphModel>
  </diagram>
</mxfile>
